<?xml version="1.0" standalone="no"?>
<!DOCTYPE svg PUBLIC "-//W3C//DTD SVG 20010904//EN"
 "http://www.w3.org/TR/2001/REC-SVG-20010904/DTD/svg10.dtd">
<svg version="1.0" xmlns="http://www.w3.org/2000/svg"
 width="1024.000000pt" height="1024.000000pt" viewBox="0 0 1024.000000 1024.000000"
 preserveAspectRatio="xMidYMid meet">
<metadata>
Created by potrace 1.15, written by Peter Selinger 2001-2017
</metadata>
<g transform="translate(0.000000,1024.000000) scale(0.100000,-0.100000)"
fill="#000000" stroke="none">
<path d="M870 10050 c0 -18 -7 -20 -60 -20 -53 0 -60 -2 -60 -20 0 -17 -7 -20
-40 -20 -33 0 -40 -3 -40 -20 0 -13 -7 -20 -20 -20 -13 0 -20 -7 -20 -20 0
-17 -7 -20 -40 -20 -33 0 -40 -3 -40 -20 0 -17 -7 -20 -40 -20 -33 0 -40 -3
-40 -20 0 -13 -7 -20 -20 -20 -13 0 -20 -7 -20 -20 0 -16 -7 -20 -35 -20 -28
0 -35 -4 -35 -20 0 -13 -7 -20 -20 -20 -13 0 -20 -7 -20 -20 0 -13 -7 -20 -20
-20 -16 0 -20 -7 -20 -35 0 -28 -4 -35 -20 -35 -14 0 -20 -7 -20 -24 0 -19 -4
-23 -20 -19 -18 5 -20 0 -20 -40 0 -40 -2 -45 -20 -40 -18 5 -20 0 -20 -36 0
-34 -3 -41 -20 -41 -13 0 -20 -7 -20 -20 0 -13 -7 -20 -20 -20 -17 0 -20 -7
-20 -40 0 -33 -3 -40 -20 -40 -18 0 -20 -7 -20 -80 0 -73 -2 -80 -20 -80 -20
0 -20 -7 -20 -4210 0 -4203 0 -4210 20 -4210 18 0 20 -7 20 -60 0 -53 2 -60
20 -60 18 0 20 -7 20 -60 0 -53 2 -60 20 -60 13 0 20 -7 20 -20 0 -13 7 -20
20 -20 17 0 20 -7 20 -40 0 -33 3 -40 20 -40 17 0 20 -7 20 -40 0 -33 3 -40
20 -40 13 0 20 -7 20 -20 0 -13 7 -20 20 -20 16 0 20 -7 20 -35 0 -28 4 -35
20 -35 13 0 20 -7 20 -20 0 -17 7 -20 40 -20 33 0 40 -3 40 -20 0 -11 7 -20
15 -20 8 0 15 -9 15 -20 0 -17 7 -20 40 -20 39 0 40 -1 40 -35 l0 -35 4570 0
c4056 0 4570 2 4570 15 0 8 9 15 20 15 13 0 20 7 20 20 0 17 7 20 40 20 33 0
40 3 40 20 0 13 7 20 20 20 13 0 20 7 20 20 0 11 7 20 15 20 8 0 15 9 15 20 0
13 7 20 20 20 13 0 20 7 20 20 0 13 7 20 20 20 11 0 20 7 20 15 0 8 9 15 20
15 13 0 20 7 20 20 0 13 7 20 20 20 17 0 20 7 20 40 0 33 3 40 20 40 13 0 20
7 20 20 0 13 7 20 20 20 18 0 20 7 20 60 0 53 2 60 20 60 17 0 20 7 20 40 0
33 3 40 20 40 19 0 20 7 20 120 0 113 1 120 20 120 13 0 20 7 20 20 0 13 7 20
20 20 20 0 20 7 20 4070 0 4063 0 4070 -20 4070 -13 0 -20 7 -20 20 0 13 -7
20 -20 20 -18 0 -20 7 -20 80 0 73 -2 80 -20 80 -18 0 -20 7 -20 80 0 73 -2
80 -20 80 -17 0 -20 7 -20 40 0 33 -3 40 -20 40 -17 0 -20 7 -20 40 0 33 -3
40 -20 40 -13 0 -20 7 -20 20 0 13 -7 20 -20 20 -13 0 -20 7 -20 20 0 13 -7
20 -20 20 -11 0 -20 7 -20 15 0 8 -9 15 -20 15 -17 0 -20 7 -20 40 0 33 -3 40
-20 40 -13 0 -20 7 -20 20 0 16 -7 20 -35 20 -28 0 -35 4 -35 20 0 13 -7 20
-20 20 -13 0 -20 7 -20 20 0 13 -7 20 -20 20 -13 0 -20 7 -20 20 0 18 -7 20
-60 20 l-60 0 0 40 c0 33 -3 40 -20 40 -13 0 -20 -7 -20 -20 0 -13 -7 -20 -20
-20 -17 0 -20 7 -20 40 l0 40 -100 0 c-93 0 -100 1 -100 20 0 20 -7 20 -4210
20 -4203 0 -4210 0 -4210 -20z m8408 -185 c4 -9 26 -18 48 -22 21 -3 46 -11
54 -18 8 -7 25 -16 38 -19 12 -4 22 -13 22 -21 0 -7 12 -16 27 -20 15 -3 35
-13 43 -20 131 -119 170 -165 139 -165 -5 0 -7 -5 -4 -10 5 -8 12 -7 22 1 12
10 16 10 24 -2 4 -8 6 -22 3 -31 -4 -12 0 -18 11 -18 20 0 45 -52 27 -58 -21
-7 -13 -38 18 -70 17 -18 30 -27 30 -22 0 6 7 10 15 10 11 0 15 -11 14 -37 0
-28 -2 -33 -8 -19 -7 19 -8 19 -13 -1 -3 -11 -2 -27 3 -34 5 -8 9 -1853 9
-4155 0 -4128 0 -4141 -20 -4159 -13 -12 -20 -31 -20 -55 0 -21 -7 -43 -15
-50 -8 -7 -26 -34 -39 -60 -13 -26 -33 -58 -45 -71 -87 -99 -136 -149 -146
-149 -6 0 -21 -11 -32 -23 -11 -13 -41 -34 -66 -46 -25 -12 -51 -29 -57 -37
-7 -7 -27 -14 -44 -14 -17 0 -44 -9 -61 -20 -30 -20 -56 -20 -4155 -20 -4099
0 -4125 0 -4155 20 -16 11 -44 20 -61 20 -17 0 -37 7 -44 14 -6 8 -32 25 -57
37 -25 12 -55 33 -66 46 -11 12 -26 23 -32 23 -10 0 -59 50 -146 149 -12 13
-32 45 -45 71 -13 26 -31 53 -39 60 -8 7 -15 28 -15 47 0 20 -9 46 -20 60 -12
16 -20 41 -20 64 0 49 -18 60 -27 17 -7 -32 -7 -32 -14 -8 -4 14 -7 1867 -8
4118 -1 3631 1 4092 14 4092 8 0 15 -6 15 -12 1 -7 10 4 20 24 11 21 17 44 13
54 -6 16 -7 16 -14 -2 -6 -14 -8 -9 -8 19 -1 26 3 37 14 37 8 0 15 -8 15 -17
1 -16 2 -15 12 2 6 11 19 28 29 38 22 20 25 53 7 59 -10 4 -10 10 -1 31 10 22
19 27 48 27 29 0 36 4 41 26 4 16 2 29 -6 34 -18 11 0 39 66 96 31 27 65 57
75 67 11 9 26 17 34 17 8 0 25 11 37 25 12 14 27 25 34 25 6 0 17 6 23 14 6 7
30 16 53 19 23 3 45 13 50 21 8 15 397 16 4178 16 3734 0 4170 -2 4178 -15z
m571 -4697 c-1 -2251 -4 -4104 -8 -4118 -7 -24 -7 -24 -14 9 -4 18 -7 1871 -7
4117 0 3624 2 4084 15 4084 13 0 15 -461 14 -4092z"/>
<path d="M3910 8013 c-30 -36 -75 -86 -100 -112 -25 -26 -58 -63 -75 -82 -16
-19 -82 -91 -147 -161 -65 -70 -128 -140 -140 -154 -13 -15 -43 -49 -68 -76
-25 -26 -50 -54 -55 -60 -30 -37 -251 -275 -264 -284 -22 -17 -5 -55 45 -96
46 -39 69 -40 80 -6 4 15 -3 27 -30 50 -38 31 -44 49 -22 67 10 9 16 8 26 -4
16 -19 34 -19 50 0 7 8 21 15 31 15 11 0 19 7 19 16 0 8 13 20 29 25 36 13 49
70 24 108 -15 23 -14 25 3 38 24 18 31 17 44 -7 13 -24 40 -27 40 -5 0 9 11
20 25 25 18 7 25 17 25 35 0 27 9 32 28 13 9 -9 15 -9 24 0 9 9 7 13 -5 18
-24 9 -21 29 6 47 22 14 22 15 3 35 -24 28 -14 56 16 47 13 -4 28 -13 34 -21
15 -19 17 -18 53 15 20 19 29 35 25 45 -8 21 22 32 41 16 9 -7 19 -10 23 -6 4
4 -1 13 -11 20 -21 16 -22 35 -2 42 8 4 15 12 15 19 0 7 -7 15 -15 19 -19 7
-19 30 -1 45 12 10 20 9 39 -4 22 -14 25 -14 37 0 7 9 19 14 27 11 7 -3 20 -3
28 0 17 7 21 34 5 34 -5 0 -10 7 -10 15 0 8 9 15 20 15 11 0 20 7 20 15 0 9
11 21 25 27 30 14 32 24 4 38 -13 7 -19 19 -17 33 5 36 36 32 73 -10 l34 -38
30 35 c17 19 30 38 31 43 0 4 -16 7 -35 7 -28 0 -38 5 -47 25 -22 48 43 100
80 63 7 -7 12 -27 12 -45 0 -30 2 -33 19 -23 40 21 36 49 -13 96 -25 24 -53
44 -63 43 -10 0 -43 -30 -73 -66z"/>
<path d="M4930 6924 c-36 -7 -112 -18 -170 -24 -58 -6 -130 -17 -160 -25 -30
-7 -100 -16 -155 -20 -55 -4 -123 -13 -150 -21 -43 -12 -54 -20 -73 -57 -19
-33 -23 -54 -20 -101 2 -33 8 -61 13 -63 7 -2 9 12 7 37 -2 22 -1 60 2 84 6
38 11 44 39 53 27 7 56 1 187 -45 85 -29 169 -58 187 -63 18 -5 45 -16 60 -24
15 -8 35 -15 43 -15 9 0 25 -7 38 -15 19 -14 24 -14 44 -2 13 8 47 18 76 21
29 4 63 11 75 16 12 4 67 18 122 30 55 12 134 30 175 40 121 30 129 31 149 20
15 -7 25 -5 42 9 31 24 19 48 -28 57 -21 4 -47 13 -58 20 -11 6 -36 15 -55 19
-35 6 -121 33 -218 66 -62 22 -83 22 -172 3z"/>
<path d="M5355 6565 c-82 -26 -139 -42 -216 -59 -30 -8 -64 -18 -75 -24 -10
-5 -41 -13 -69 -17 -27 -4 -72 -16 -98 -26 -26 -11 -68 -19 -93 -19 -40 0
-153 28 -249 61 -16 6 -52 17 -80 24 -146 40 -172 49 -190 61 -28 20 -38 17
-57 -17 -23 -40 -23 -55 4 -73 16 -11 26 -12 41 -5 20 11 40 7 360 -72 87 -21
170 -39 184 -39 13 0 34 -5 45 -11 16 -8 34 -7 77 6 31 10 61 21 66 25 6 5 26
13 45 19 19 6 100 34 180 62 149 53 205 63 220 39 13 -22 22 -106 15 -140 -4
-17 -2 -30 3 -30 5 0 12 10 14 23 5 27 -6 146 -16 169 -6 12 0 21 21 31 l28
15 -28 11 c-37 14 -48 13 -132 -14z"/>
<path d="M4215 6302 c-20 -11 -30 -23 -27 -34 2 -10 -4 -28 -12 -40 -18 -26
-23 -163 -6 -173 6 -4 10 12 10 42 0 123 27 161 93 134 18 -7 52 -19 77 -26
76 -22 238 -80 295 -105 45 -20 105 -35 120 -31 6 2 44 7 86 12 42 5 89 16
105 24 16 8 35 15 43 15 15 0 190 39 299 67 57 15 64 15 80 0 17 -16 20 -15
45 11 27 28 37 84 18 96 -4 3 -25 -4 -47 -14 -21 -11 -45 -20 -54 -20 -9 0
-39 -7 -66 -15 -27 -9 -80 -25 -119 -37 -38 -11 -95 -29 -125 -38 -94 -30
-182 -32 -261 -4 -38 13 -80 24 -94 24 -14 0 -40 7 -56 16 -17 8 -52 19 -77
23 -80 14 -245 61 -269 76 -27 18 -21 18 -58 -3z"/>
<path d="M5370 6029 c-14 -10 -83 -32 -155 -49 -71 -17 -143 -36 -160 -42 -16
-6 -56 -16 -88 -23 -32 -8 -77 -21 -99 -30 -61 -24 -181 -23 -243 3 -27 11
-68 23 -89 27 -21 4 -48 13 -60 20 -12 8 -41 17 -66 21 -25 4 -57 13 -72 20
-30 16 -88 19 -88 5 0 -10 34 -21 67 -21 12 0 29 -7 38 -16 9 -10 40 -23 68
-30 29 -7 104 -32 167 -55 121 -44 156 -49 205 -31 17 6 50 15 75 22 119 29
172 42 260 61 52 11 99 24 105 29 5 4 28 11 50 15 49 8 165 46 165 55 0 3 -12
13 -27 22 -26 15 -30 14 -53 -3z"/>
<path d="M5066 4693 c-7 -21 19 -227 30 -245 5 -7 11 -41 15 -76 4 -35 14 -70
22 -80 9 -10 19 -38 23 -62 4 -25 12 -52 19 -60 7 -8 15 -35 19 -59 4 -24 13
-53 21 -64 8 -12 15 -29 15 -39 0 -22 13 -51 50 -113 16 -27 34 -60 39 -71 5
-12 17 -24 25 -27 10 -4 16 -18 16 -36 0 -40 -17 -44 -179 -40 l-136 4 -3 -27
-3 -28 163 0 c90 0 290 -5 445 -12 l283 -12 13 -40 c7 -22 18 -41 24 -43 17
-6 133 85 133 104 -1 10 -12 27 -26 38 -14 11 -36 30 -48 43 -29 30 -79 28
-84 -3 -2 -11 -11 -26 -20 -32 -17 -14 -100 -16 -142 -4 -34 9 -39 53 -10 78
12 10 26 27 31 38 6 11 21 38 34 60 14 22 29 51 35 65 5 14 15 34 21 44 12 20
44 107 63 171 6 22 16 49 22 60 6 11 14 42 18 69 3 27 11 55 17 62 6 8 17 51
25 96 7 46 20 112 29 147 17 67 12 86 -21 79 -13 -2 -23 -27 -41 -108 -13 -58
-30 -125 -38 -150 -8 -25 -15 -56 -15 -70 -1 -14 -8 -43 -16 -65 -9 -22 -22
-62 -29 -90 -17 -64 -45 -136 -61 -155 -6 -8 -15 -30 -19 -47 -3 -18 -11 -36
-17 -39 -5 -4 -17 -21 -25 -38 -45 -96 -121 -176 -168 -176 l-24 0 5 378 c3
207 7 387 10 400 4 19 10 23 37 20 27 -2 33 1 35 20 2 13 -7 35 -22 53 -14 17
-26 35 -26 40 0 13 -55 39 -66 31 -22 -16 -84 -100 -84 -115 0 -9 12 -22 27
-29 15 -7 30 -24 34 -38 11 -39 10 -393 -2 -523 -5 -65 -11 -144 -12 -175 -2
-53 -4 -57 -28 -60 -18 -2 -36 8 -64 37 -54 54 -65 68 -65 86 0 8 -8 23 -19
34 -20 20 -71 122 -71 143 0 7 -7 22 -15 32 -8 11 -15 34 -15 52 0 17 -9 42
-19 56 -11 13 -22 46 -27 73 -4 28 -13 59 -20 70 -7 11 -17 48 -23 82 -5 34
-14 70 -20 81 -5 10 -13 54 -17 98 -9 97 -42 158 -58 107z"/>
<path d="M5090 3030 c-52 -4 -153 -13 -225 -19 -71 -6 -251 -13 -400 -15 -148
-2 -271 -4 -272 -5 -2 -1 -3 -5 -3 -11 0 -5 21 -15 48 -23 37 -11 84 -12 222
-6 96 5 210 13 253 19 44 6 203 13 355 16 309 4 640 19 649 28 4 3 3 9 -1 13
-10 10 -509 12 -626 3z"/>
<path d="M5590 2919 c-211 -10 -486 -26 -670 -39 -74 -5 -252 -11 -394 -14
-267 -5 -280 -7 -273 -46 2 -13 21 -14 117 -11 63 2 123 7 132 12 10 5 181 14
380 19 344 9 652 22 871 38 l98 7 -21 23 c-11 12 -31 21 -43 21 -12 -1 -101
-6 -197 -10z"/>
<path d="M5570 2799 c-246 -9 -497 -25 -620 -39 -47 -5 -197 -10 -335 -11
-304 -1 -368 -7 -373 -33 -2 -10 0 -22 5 -26 10 -10 205 6 248 19 17 6 182 12
368 15 186 3 342 8 346 10 9 6 377 21 514 21 93 0 108 2 113 17 7 25 -3 38
-29 36 -12 -1 -119 -5 -237 -9z"/>
<path d="M5777 2700 c-15 -5 -154 -13 -310 -19 -400 -16 -431 -18 -479 -34
-35 -12 -110 -15 -391 -14 l-348 2 -5 -22 c-8 -31 4 -46 32 -39 46 12 464 37
669 40 250 4 875 26 892 31 9 3 10 12 2 35 -11 32 -17 33 -62 20z"/>
<path d="M5540 2560 c-195 -8 -384 -22 -535 -40 -79 -10 -276 -17 -588 -23
-159 -4 -186 -10 -174 -41 5 -13 24 -14 129 -9 71 3 134 11 150 19 20 10 92
14 295 15 147 0 410 7 583 15 173 8 342 15 375 17 57 2 60 3 60 27 0 23 -4 25
-50 26 -27 1 -138 -2 -245 -6z"/>
<path d="M5480 2439 c-113 -5 -263 -14 -335 -19 -254 -21 -392 -28 -640 -31
-151 -3 -253 -8 -257 -14 -4 -5 -8 -19 -8 -31 0 -20 4 -21 108 -17 59 2 125 8
147 13 63 15 178 20 495 25 162 2 336 9 385 14 50 5 179 13 288 17 108 4 197
10 197 14 0 4 -8 14 -18 23 -21 19 -30 19 -362 6z"/>
<path d="M5515 2319 c-77 -4 -241 -14 -365 -23 -217 -14 -372 -22 -625 -31
-204 -7 -285 -16 -285 -30 0 -30 12 -45 34 -40 11 3 73 10 136 16 63 5 160 14
215 19 55 5 192 10 305 11 113 0 300 7 415 15 116 7 271 16 344 19 134 5 156
12 144 42 -6 15 -79 15 -318 2z"/>
<path d="M5685 2150 c-55 -4 -221 -12 -370 -19 -148 -7 -280 -16 -293 -22 -22
-9 -23 -11 -21 -170 1 -125 -2 -164 -13 -171 -16 -12 -263 -1 -288 12 -10 6
-22 20 -26 32 -3 13 -26 55 -50 93 -23 39 -52 92 -64 118 -12 28 -31 51 -43
56 -22 8 -257 2 -257 -6 0 -25 52 -74 142 -133 78 -52 120 -88 151 -128 23
-31 54 -62 67 -68 14 -6 50 -23 80 -37 30 -14 70 -30 88 -36 18 -6 46 -19 61
-30 42 -30 79 -42 155 -51 86 -10 164 8 243 56 31 19 64 34 72 34 9 0 32 10
51 22 19 12 51 26 71 32 22 7 53 31 84 66 27 30 65 66 84 79 125 85 249 217
251 269 0 13 -9 13 -175 2z"/>
</g>
</svg>
